<svg class="svg-canvas" viewBox="0 0 800 600" width="1600" height="1200" preserveAspectRatio="none" version="1.1" xmlns="http://www.w3.org/2000/svg" xmlns:xlink="http://www.w3.org/1999/xlink">
      <!--滤镜-->
      <defs></defs>
    
      <!-- 背景 -->
      <g id="background">
          <rect x="0" y="0" fill="#ffffff" width="800" height="600"></rect>
          
        </g>
    
      <!--元素-->
      
              <g id="shape_GmoCDiWV4R" ref="shape_GmoCDiWV4R" key="shape_GmoCDiWV4R" mask="">
                <g transform="translate(-36.47625271065175,178.82389568643458) rotate(0,436.4762527106518,187.63982775281033) scale(1,1)" style="opacity: 1;mix-blend-mode: undefined;" filter="">
                  <!--普通元素-->
                  <svg xmlns="http://www.w3.org/2000/svg" version="1.1" xmlns:xlink="http://www.w3.org/1999/xlink" width="872.9525054213036" height="375.27965550562067" viewBox="0 0 924.3943494907733 397.3943494907733" data-ligature="true" data-parent="shape_GmoCDiWV4R"><g data-role="text" data-width="592.5776756367577" data-height="66" transform="translate(165.9083369270078, 165.69717474538666)"><path d="M44.68-38.66L44.68-33.14L10.16-33.14L10.16 0L4.64 0L4.64-38.66L44.68-38.66ZM39.93-22.09L39.93-16.57L12.92-16.57L12.92-22.09L39.93-22.09Z" transform="translate(0 52) " fill="rgb(10, 55, 140)" stroke="rgb(10, 55, 140)" stroke-width="0.092" data-glyph-w="48.42201049792202" data-glyph-h="66.60738" data-glyph-ascender="52.634190000000004" data-glyph-descender="-13.97319" data-kerning="0"></path><path d="M48.60-38.66L48.60 0L43.08 0L43.08-11.05L12.21-11.05L12.21-16.57L43.08-16.57L43.08-33.14L23.25-33.14Q19.50-33.14 16.35-31.29Q13.20-29.44 11.35-26.29Q9.50-23.14 9.50-19.33L9.50-19.33L9.50 0L3.98 0L3.98-19.33Q3.98-23.31 5.47-26.81Q6.96-30.32 9.61-33.00Q12.26-35.68 15.77-37.17Q19.28-38.66 23.25-38.66L23.25-38.66L48.60-38.66Z" transform="translate(48.42201049792202 52) " fill="rgb(10, 55, 140)" stroke="rgb(10, 55, 140)" stroke-width="0.092" data-glyph-w="56.04375049792202" data-glyph-h="66.60738" data-glyph-ascender="52.634190000000004" data-glyph-descender="-13.97319" data-kerning="0"></path><path d="M10.16-38.66L10.16 0L4.64 0L4.64-38.66L10.16-38.66Z" transform="translate(104.46576099584404 52) " fill="rgb(10, 55, 140)" stroke="rgb(10, 55, 140)" stroke-width="0.092" data-glyph-w="17.603670497922018" data-glyph-h="66.60738" data-glyph-ascender="52.634190000000004" data-glyph-descender="-13.97319" data-kerning="0"></path><path d="M25.63-33.14L25.63 0L20.10 0L20.10-33.14L0.55-33.14L0.55-38.66L45.18-38.66L45.18-33.14L25.63-33.14Z" transform="translate(122.06943149376605 52) " fill="rgb(10, 55, 140)" stroke="rgb(10, 55, 140)" stroke-width="0.092" data-glyph-w="48.53247049792202" data-glyph-h="66.60738" data-glyph-ascender="52.634190000000004" data-glyph-descender="-13.97319" data-kerning="0"></path><path d="M0,0Z" transform="translate(170.60190199168807 52) " fill="rgb(10, 55, 140)" stroke="rgb(10, 55, 140)" stroke-width="0.092" data-glyph-w="23.51328049792202" data-glyph-h="66.60738" data-glyph-ascender="52.634190000000004" data-glyph-descender="-13.97319" data-kerning="0"></path><path d="M45.12-5.52L45.12 0L20.21 0Q16.18 0 12.92-1.49Q9.67-2.98 7.32-5.63Q4.97-8.28 3.70-11.79Q2.43-15.30 2.43-19.33L2.43-19.33Q2.43-23.31 3.70-26.81Q4.97-30.32 7.32-33.00Q9.67-35.68 12.92-37.17Q16.18-38.66 20.21-38.66L20.21-38.66L45.12-38.66L45.12-33.14L20.21-33.14Q16.40-33.14 13.67-31.29Q10.94-29.44 9.44-26.29Q7.95-23.14 7.95-19.33L7.95-19.33Q7.95-15.52 9.44-12.40Q10.94-9.28 13.67-7.40Q16.40-5.52 20.21-5.52L20.21-5.52L45.12-5.52Z" transform="translate(194.11518248961008 52) " fill="rgb(10, 55, 140)" stroke="rgb(10, 55, 140)" stroke-width="0.092" data-glyph-w="49.96845049792202" data-glyph-h="66.60738" data-glyph-ascender="52.634190000000004" data-glyph-descender="-13.97319" data-kerning="0"></path><path d="M39.77-15.24L39.77-15.24Q39.77-11.05 38.03-7.59Q36.29-4.14 33.14-2.07Q29.99 0 25.79 0L25.79 0L16.18 0Q11.98 0 8.81-2.07Q5.63-4.14 3.89-7.59Q2.15-11.05 2.15-15.24L2.15-15.24Q2.15-19.44 3.89-22.87Q5.63-26.29 8.81-28.33Q11.98-30.38 16.18-30.38L16.18-30.38L25.79-30.38Q29.99-30.38 33.14-28.33Q36.29-26.29 38.03-22.87Q39.77-19.44 39.77-15.24ZM34.24-15.24L34.24-15.24Q34.24-17.89 33.25-20.10Q32.25-22.31 30.35-23.61Q28.44-24.91 25.79-24.91L25.79-24.91L16.18-24.91Q13.53-24.91 11.63-23.61Q9.72-22.31 8.70-20.10Q7.68-17.89 7.68-15.24L7.68-15.24Q7.68-12.59 8.70-10.38Q9.72-8.17 11.63-6.85Q13.53-5.52 16.18-5.52L16.18-5.52L25.79-5.52Q28.44-5.52 30.35-6.85Q32.25-8.17 33.25-10.38Q34.24-12.59 34.24-15.24Z" transform="translate(244.0836329875321 52) " fill="rgb(10, 55, 140)" stroke="rgb(10, 55, 140)" stroke-width="0.092" data-glyph-w="44.72160049792202" data-glyph-h="66.60738" data-glyph-ascender="52.634190000000004" data-glyph-descender="-13.97319" data-kerning="0"></path><path d="M37.39 0L31.87 0Q31.87-3.65 30.46-6.99Q29.05-10.33 26.68-13.20Q24.30-16.07 21.37-18.39Q18.45-20.71 15.38-22.26Q12.32-23.80 9.50-24.47L9.50-24.47L9.50 0L3.98 0L3.98-30.38L6.96-30.38L6.96-30.32Q9.94-30.16 13.28-29.02Q16.62-27.89 19.99-25.90Q23.36-23.91 26.43-21.26Q29.49-18.61 31.87-15.35L31.87-15.35L31.87-30.38L37.39-30.38L37.39 0Z" transform="translate(288.8052334854541 52) " fill="rgb(10, 55, 140)" stroke="rgb(10, 55, 140)" stroke-width="0.092" data-glyph-w="44.169300497922016" data-glyph-h="66.60738" data-glyph-ascender="52.634190000000004" data-glyph-descender="-13.97319" data-kerning="0"></path><path d="M37.28-8.95L37.28-8.95Q37.28-6.46 36.09-4.45Q34.91-2.43 32.86-1.22Q30.82 0 28.33 0L28.33 0L2.54 0L2.54-5.52L28.33-5.52Q29.77-5.52 30.79-6.52Q31.81-7.51 31.81-8.95L31.81-8.95Q31.81-10.38 30.79-11.40Q29.77-12.43 28.33-12.43L28.33-12.43L11.43-12.43Q9.00-12.43 6.99-13.64Q4.97-14.86 3.76-16.90Q2.54-18.94 2.54-21.43L2.54-21.43Q2.54-23.86 3.76-25.90Q4.97-27.95 6.99-29.16Q9.00-30.38 11.43-30.38L11.43-30.38L35.24-30.38L35.24-24.91L11.43-24.91Q10.05-24.91 9.03-23.89Q8.01-22.87 8.01-21.43L8.01-21.43Q8.01-19.99 9.03-18.97Q10.05-17.95 11.43-17.95L11.43-17.95L28.33-17.95Q30.82-17.95 32.86-16.73Q34.91-15.52 36.09-13.48Q37.28-11.43 37.28-8.95Z" transform="translate(332.9745339833761 52) " fill="rgb(10, 55, 140)" stroke="rgb(10, 55, 140)" stroke-width="0.092" data-glyph-w="41.84964049792202" data-glyph-h="66.60738" data-glyph-ascender="52.634190000000004" data-glyph-descender="-13.97319" data-kerning="0"></path><path d="M31.26-30.38L36.78-30.38L36.78-15.19Q36.78-12.04 35.60-9.28Q34.41-6.52 32.34-4.45Q30.27-2.37 27.53-1.19Q24.80 0 21.65 0L21.65 0L18.61 0Q15.46 0 12.73-1.19Q10.00-2.37 7.93-4.47Q5.85-6.57 4.67-9.31Q3.48-12.04 3.48-15.19L3.48-15.19L3.48-30.38L9.00-30.38L9.00-15.19Q9.00-12.54 10.30-10.33Q11.60-8.12 13.78-6.82Q15.96-5.52 18.61-5.52L18.61-5.52L21.65-5.52Q24.36-5.52 26.51-6.82Q28.66-8.12 29.96-10.33Q31.26-12.54 31.26-15.19L31.26-15.19L31.26-30.38Z" transform="translate(374.8241744812981 52) " fill="rgb(10, 55, 140)" stroke="rgb(10, 55, 140)" stroke-width="0.092" data-glyph-w="43.06470049792202" data-glyph-h="66.60738" data-glyph-ascender="52.634190000000004" data-glyph-descender="-13.97319" data-kerning="0"></path><path d="M33.03-5.52L33.03 0L3.98 0L3.98-30.38L9.50-30.38L9.50-5.52L33.03-5.52Z" transform="translate(417.8888749792201 52) " fill="rgb(10, 55, 140)" stroke="rgb(10, 55, 140)" stroke-width="0.092" data-glyph-w="36.54756049792202" data-glyph-h="66.60738" data-glyph-ascender="52.634190000000004" data-glyph-descender="-13.97319" data-kerning="0"></path><path d="M20.77-24.91L20.77 0L15.24 0L15.24-24.91L0.61-24.91L0.61-30.38L35.35-30.38L35.35-24.91L20.77-24.91Z" transform="translate(454.4364354771421 52) " fill="rgb(10, 55, 140)" stroke="rgb(10, 55, 140)" stroke-width="0.092" data-glyph-w="38.756760497922016" data-glyph-h="66.60738" data-glyph-ascender="52.634190000000004" data-glyph-descender="-13.97319" data-kerning="0"></path><path d="M9.44-30.38L9.44 0L3.98 0L3.98-30.38L9.44-30.38Z" transform="translate(493.1931959750641 52) " fill="rgb(10, 55, 140)" stroke="rgb(10, 55, 140)" stroke-width="0.092" data-glyph-w="16.22292049792202" data-glyph-h="66.60738" data-glyph-ascender="52.634190000000004" data-glyph-descender="-13.97319" data-kerning="0"></path><path d="M37.39 0L31.87 0Q31.87-3.65 30.46-6.99Q29.05-10.33 26.68-13.20Q24.30-16.07 21.37-18.39Q18.45-20.71 15.38-22.26Q12.32-23.80 9.50-24.47L9.50-24.47L9.50 0L3.98 0L3.98-30.38L6.96-30.38L6.96-30.32Q9.94-30.16 13.28-29.02Q16.62-27.89 19.99-25.90Q23.36-23.91 26.43-21.26Q29.49-18.61 31.87-15.35L31.87-15.35L31.87-30.38L37.39-30.38L37.39 0Z" transform="translate(509.4161164729861 52) " fill="rgb(10, 55, 140)" stroke="rgb(10, 55, 140)" stroke-width="0.092" data-glyph-w="44.169300497922016" data-glyph-h="66.60738" data-glyph-ascender="52.634190000000004" data-glyph-descender="-13.97319" data-kerning="0"></path><path d="M35.95-18.17L35.95 0L16.35 0Q12.10 0 8.89-2.04Q5.69-4.09 3.92-7.57Q2.15-11.05 2.15-15.30L2.15-15.30Q2.15-19.55 3.92-22.98Q5.69-26.40 8.89-28.44Q12.10-30.49 16.35-30.49L16.35-30.49L35.95-30.49L35.95-24.91L16.35-24.91Q13.70-24.91 11.76-23.61Q9.83-22.31 8.78-20.16Q7.73-18.00 7.73-15.30L7.73-15.30Q7.73-12.59 8.78-10.38Q9.83-8.17 11.76-6.88Q13.70-5.58 16.35-5.58L16.35-5.58L30.38-5.58L30.38-12.59L14.53-12.59L14.53-18.17L35.95-18.17Z" transform="translate(553.5854169709081 52) " fill="rgb(10, 55, 140)" stroke="rgb(10, 55, 140)" stroke-width="0.092" data-glyph-w="41.79441049792202" data-glyph-h="66.60738" data-glyph-ascender="52.634190000000004" data-glyph-descender="-13.97319" data-kerning="0"></path></g></svg>
                </g>
              </g>
              <g id="shape_rQnhesx9jl" ref="shape_rQnhesx9jl" key="shape_rQnhesx9jl" mask="">
                <g transform="translate(324.937644081322,171.28176884250382) rotate(0,75.06235591867808,76.15695076291732) scale(1,1)" style="opacity: 1;mix-blend-mode: undefined;" filter="">
                  <!--普通元素-->
                  <svg id="svg" version="1.1" width="150.12471183735616" height="152.31390152583464" viewBox="132.19235421414714 127.0299898791499 503.6219652386359 510.9660193900014" xmlns="http://www.w3.org/2000/svg" xmlns:xlink="http://www.w3.org/1999/xlink" class="style-removed" preserveAspectRatio="none" data-parent="shape_rQnhesx9jl"><path d="M377.017 128.851 C 372.151 131.461,369.796 135.072,369.249 140.760 C 368.653 146.958,370.837 151.478,375.501 153.702 C 377.377 154.597,379.148 155.944,379.437 156.697 C 379.726 157.450,380.002 196.632,380.050 243.768 L 380.138 329.470 377.958 331.235 C 375.470 333.250,368.990 333.590,367.200 331.800 C 366.433 331.033,366.000 327.123,366.000 320.955 C 366.000 312.363,366.233 311.102,368.138 309.405 C 373.225 304.872,373.193 305.354,373.051 236.184 C 372.906 166.075,372.987 167.086,367.348 164.942 C 365.741 164.331,329.035 164.069,268.383 164.235 L 171.972 164.500 168.486 168.306 L 165.000 172.111 165.000 265.009 C 165.000 330.961,165.322 358.613,166.110 360.343 C 166.721 361.683,168.317 363.279,169.657 363.890 C 171.360 364.665,190.865 365.000,234.392 365.000 C 294.200 365.000,296.758 364.924,298.400 363.111 C 299.916 361.436,300.131 358.068,300.305 333.361 C 300.526 301.753,300.624 301.319,308.834 295.549 L 313.073 292.570 335.268 292.267 C 353.490 292.019,357.735 291.693,358.982 290.447 C 360.295 289.135,360.537 281.643,360.775 235.013 C 361.046 182.019,361.016 181.079,359.055 180.029 C 357.698 179.303,337.287 178.981,295.280 179.023 C 261.301 179.058,232.938 179.066,232.250 179.043 C 231.563 179.019,231.000 178.315,231.000 177.479 C 231.000 176.130,238.363 175.988,295.965 176.229 C 356.413 176.481,361.052 176.622,362.688 178.259 C 364.325 179.896,364.448 184.056,364.473 238.585 L 364.500 297.152 360.915 300.326 C 358.943 302.072,356.355 304.283,355.165 305.240 C 353.834 306.310,353.000 308.109,353.000 309.908 C 353.000 314.599,352.165 315.684,346.387 318.512 C 339.018 322.117,337.797 324.245,337.833 333.427 C 337.857 339.425,337.466 341.409,335.859 343.452 C 333.920 345.917,333.482 346.000,322.427 346.000 C 308.226 346.000,307.000 346.790,307.000 355.943 C 307.000 364.358,308.152 365.000,323.247 365.000 L 335.050 365.000 336.106 367.750 C 337.297 370.853,336.686 376.468,334.926 378.589 C 334.034 379.664,330.820 380.000,321.437 380.000 C 314.661 380.000,308.864 380.412,308.553 380.915 C 308.242 381.418,307.700 384.574,307.350 387.927 C 306.368 397.324,307.355 398.000,322.073 398.000 C 328.543 398.000,334.548 398.273,335.418 398.607 C 336.635 399.074,337.000 400.706,337.000 405.673 C 337.000 413.674,337.821 415.246,343.768 418.627 C 350.384 422.388,351.000 423.443,351.000 431.004 C 351.000 438.162,351.820 439.471,359.678 444.856 C 361.426 446.054,363.300 448.489,363.843 450.267 C 364.462 452.291,364.725 476.815,364.549 515.839 C 364.279 575.437,364.184 578.261,362.376 580.068 C 360.562 581.882,357.857 581.961,295.618 582.022 C 259.941 582.056,230.537 581.870,230.275 581.609 C 227.873 579.207,234.244 578.950,294.241 579.030 C 353.825 579.110,357.429 579.014,359.117 577.307 C 360.789 575.617,360.911 571.790,361.013 518.000 C 361.073 486.375,361.094 459.263,361.061 457.750 C 361.027 456.238,360.100 454.100,359.000 453.000 C 357.115 451.115,355.667 451.000,333.868 451.000 L 310.737 451.000 306.470 446.733 C 300.550 440.813,299.879 437.501,300.216 415.887 L 300.500 397.737 297.962 395.831 C 295.217 393.771,302.348 393.899,194.923 393.981 L 170.846 394.000 167.923 396.923 L 165.000 399.846 165.000 493.388 L 165.000 586.930 168.091 590.451 C 169.920 592.534,172.751 594.394,175.023 595.006 C 177.573 595.693,210.272 595.949,272.351 595.770 L 365.839 595.500 368.526 593.000 C 370.003 591.625,371.605 589.482,372.086 588.238 C 372.567 586.993,372.993 554.496,373.033 516.021 C 373.110 441.986,373.268 444.583,368.351 438.673 C 366.385 436.309,366.000 434.721,366.000 428.970 C 366.000 419.579,367.286 417.000,371.969 417.000 C 373.976 417.000,376.491 417.639,377.559 418.419 C 379.453 419.804,379.506 422.103,379.759 514.169 L 380.019 608.500 376.259 610.500 C 371.139 613.224,368.781 618.039,369.278 624.758 C 369.874 632.833,375.702 638.004,384.200 637.996 C 392.572 637.989,398.989 631.440,398.996 622.898 C 399.001 617.558,395.949 612.233,391.719 610.198 C 390.230 609.482,388.764 607.907,388.461 606.698 C 388.158 605.489,388.042 563.550,388.205 513.500 C 388.526 414.331,388.215 419.396,394.149 416.938 C 400.253 414.410,403.000 417.972,403.000 428.417 C 403.000 433.542,402.539 435.332,400.508 438.102 C 394.726 445.985,395.000 442.040,395.000 517.518 C 395.000 594.712,394.748 591.743,401.534 594.579 C 404.390 595.772,419.674 596.000,496.843 596.000 C 547.392 596.000,590.160 595.718,591.884 595.373 C 593.608 595.028,596.589 593.129,598.509 591.152 L 602.000 587.558 602.000 493.702 L 602.000 399.846 599.077 396.923 L 596.154 394.000 571.827 393.980 C 558.447 393.969,530.617 393.943,509.981 393.923 C 489.346 393.902,471.701 394.178,470.769 394.535 C 467.990 395.601,467.614 398.634,467.901 417.657 C 468.147 433.910,467.969 436.281,466.207 440.266 C 464.331 444.507,459.698 448.925,455.604 450.377 C 454.561 450.747,444.173 451.047,432.519 451.043 C 416.383 451.039,410.894 451.357,409.498 452.377 C 406.521 454.555,406.085 463.012,406.056 519.142 C 406.029 572.564,406.314 577.139,409.763 578.463 C 410.656 578.805,440.099 579.057,475.193 579.022 C 531.662 578.965,539.000 579.133,539.000 580.479 C 539.000 581.821,531.904 582.028,478.750 582.236 C 404.990 582.525,408.178 582.622,405.568 580.013 C 403.529 577.974,403.496 577.097,403.220 516.940 C 403.032 475.987,403.291 454.632,404.008 451.971 C 404.834 448.902,406.304 447.100,410.524 443.982 C 416.410 439.634,416.787 438.830,417.816 428.430 L 418.500 421.526 423.262 419.267 C 429.336 416.386,431.991 412.185,431.996 405.450 C 431.998 402.672,432.540 399.860,433.200 399.200 C 433.991 398.409,438.228 398.000,445.627 398.000 C 456.566 398.000,456.908 397.932,458.927 395.365 C 461.829 391.676,461.676 385.896,458.582 382.306 C 456.167 379.504,456.147 379.500,445.089 379.813 C 434.033 380.125,434.012 380.121,432.842 377.552 C 432.026 375.761,431.948 373.536,432.584 370.239 L 433.500 365.500 445.123 365.219 C 459.264 364.878,460.533 364.053,460.445 355.260 C 460.361 346.933,458.750 346.000,444.448 346.000 C 436.482 346.000,432.878 345.629,432.309 344.750 C 431.864 344.063,431.260 339.358,430.967 334.295 C 430.361 323.838,429.098 321.676,421.506 318.108 C 417.443 316.198,417.244 315.893,416.759 310.846 C 416.413 307.246,415.659 305.156,414.376 304.246 C 413.344 303.514,410.630 301.613,408.345 300.020 L 404.190 297.125 403.469 288.467 C 402.557 277.518,403.461 182.128,404.500 179.673 C 404.925 178.669,406.366 177.431,407.702 176.923 C 409.102 176.391,437.240 176.022,474.066 176.052 C 529.173 176.098,538.000 176.305,538.000 177.553 C 538.000 179.047,510.187 179.466,437.494 179.066 C 408.491 178.907,408.526 178.899,406.938 185.527 C 406.391 187.808,406.055 209.733,406.149 237.000 C 406.325 288.296,406.501 290.099,411.517 292.006 C 412.954 292.553,423.385 293.000,434.697 293.000 C 458.097 293.000,459.649 293.431,464.814 301.371 L 467.500 305.500 467.661 333.790 C 467.778 354.264,468.157 362.484,469.034 363.540 C 470.072 364.792,479.236 365.000,533.199 365.000 L 596.154 365.000 599.077 362.077 L 602.000 359.154 602.000 266.537 C 602.000 175.275,601.970 173.862,599.959 169.920 C 598.830 167.707,596.790 165.491,595.394 164.960 C 593.846 164.371,556.130 164.000,497.885 164.000 C 393.339 164.000,398.346 163.699,396.108 170.119 C 395.343 172.316,395.000 192.738,395.000 236.181 C 395.000 303.974,394.865 302.141,400.348 308.644 C 402.772 311.518,403.000 312.536,403.000 320.460 C 403.000 325.229,402.566 329.942,402.036 330.934 C 400.829 333.188,395.494 334.335,392.833 332.911 C 388.318 330.494,388.292 330.004,388.066 244.402 C 387.948 199.799,388.157 161.678,388.530 159.690 C 389.029 157.030,390.087 155.556,392.531 154.114 C 397.317 151.290,399.385 147.599,399.385 141.878 C 399.385 130.658,387.046 123.473,377.017 128.851 M210.142 187.076 C 211.045 187.559,212.958 189.350,214.392 191.054 C 216.588 193.663,216.999 195.130,216.996 200.327 C 216.990 210.514,211.244 216.988,202.200 216.996 C 188.340 217.008,181.014 200.887,190.151 190.481 C 191.830 188.569,194.620 186.577,196.352 186.055 C 199.701 185.044,207.413 185.616,210.142 187.076 M571.896 186.575 C 579.805 189.740,584.116 200.687,580.305 207.929 C 579.312 209.815,576.830 212.692,574.790 214.322 C 567.844 219.870,556.473 217.743,552.605 210.171 C 549.204 203.513,549.883 195.554,554.284 190.475 C 556.437 187.991,562.724 185.133,566.230 185.044 C 567.181 185.020,569.731 185.709,571.896 186.575 M351.065 188.664 C 351.905 189.505,352.174 197.837,352.032 218.664 C 351.924 234.524,351.862 254.475,351.894 263.000 C 351.926 271.525,351.626 279.400,351.226 280.500 C 350.827 281.600,350.275 262.263,350.000 237.529 L 349.500 192.558 347.000 191.294 C 345.073 190.319,331.389 190.026,287.250 190.015 C 236.652 190.002,230.000 189.823,230.000 188.477 C 230.000 187.127,236.808 186.985,289.950 187.227 C 333.900 187.427,350.212 187.811,351.065 188.664 M538.000 188.500 C 538.000 189.816,530.847 190.000,479.622 190.000 C 428.122 190.000,421.093 190.183,419.959 191.550 C 418.947 192.769,418.719 202.310,418.889 236.300 C 419.072 272.987,418.883 279.801,417.634 281.499 C 416.193 283.457,416.150 283.446,415.516 280.921 C 415.161 279.504,415.012 258.537,415.185 234.326 C 415.439 198.840,415.766 189.987,416.872 188.654 C 418.121 187.149,423.645 187.000,478.122 187.000 C 530.680 187.000,538.000 187.183,538.000 188.500 M331.750 222.250 C 331.427 223.220,321.983 223.534,289.567 223.650 C 264.577 223.740,247.416 224.184,246.844 224.756 C 246.319 225.281,246.188 226.901,246.553 228.355 L 247.217 231.000 289.608 231.000 C 327.066 231.000,332.000 231.179,332.000 232.536 C 332.000 233.896,326.853 234.059,287.010 233.959 L 242.020 233.846 233.010 242.156 L 224.000 250.465 223.970 273.982 C 223.954 286.917,223.967 309.804,223.999 324.843 C 224.047 346.627,223.798 352.100,222.779 351.760 C 221.767 351.423,221.446 340.737,221.241 300.607 L 220.982 249.881 232.741 237.689 C 239.208 230.983,245.400 224.523,246.500 223.332 C 248.487 221.181,248.771 221.166,290.333 221.083 C 323.385 221.017,332.079 221.262,331.750 222.250 M521.811 223.039 C 523.015 224.160,524.000 225.490,524.000 225.994 C 524.000 227.711,535.228 239.228,540.558 242.977 C 542.789 244.547,545.140 246.464,545.782 247.238 C 546.636 248.266,546.970 262.295,547.027 299.436 C 547.070 327.372,546.832 350.501,546.498 350.835 C 544.451 352.882,544.029 344.147,544.015 299.441 C 543.999 246.131,544.368 249.480,538.000 244.829 C 536.075 243.423,532.655 240.426,530.400 238.169 C 525.855 233.619,522.145 231.785,519.947 233.000 C 518.172 233.982,437.439 234.772,436.483 233.817 C 433.996 231.330,438.928 231.000,478.580 231.000 L 520.043 231.000 521.194 228.473 C 523.446 223.531,523.174 223.500,478.280 223.500 C 445.880 223.500,436.576 223.223,436.251 222.250 C 435.921 221.263,444.656 221.000,477.728 221.000 C 518.507 221.000,519.681 221.054,521.811 223.039 M582.736 289.583 C 582.866 322.538,582.770 350.055,582.524 350.733 C 582.277 351.411,581.384 351.701,580.538 351.376 C 579.178 350.854,579.000 343.922,579.000 291.475 C 579.000 258.854,579.280 231.433,579.623 230.540 C 579.966 229.646,580.753 229.085,581.373 229.291 C 582.189 229.563,582.565 246.221,582.736 289.583 M188.101 251.250 C 188.391 312.403,188.026 350.374,187.139 351.261 C 186.609 351.791,185.778 351.981,185.293 351.681 C 184.795 351.373,184.544 325.113,184.716 291.318 C 184.882 258.418,185.015 231.163,185.010 230.750 C 185.004 230.338,185.675 230.000,186.500 230.000 C 187.783 230.000,188.015 233.073,188.101 251.250 M201.344 234.025 C 201.259 235.936,201.190 248.075,201.191 261.000 C 201.200 341.058,200.825 354.159,198.594 351.927 C 198.039 351.372,197.871 332.936,197.924 278.127 C 197.947 254.272,197.747 234.400,197.480 233.967 C 196.575 232.503,198.242 229.900,199.876 230.226 C 201.040 230.458,201.456 231.535,201.344 234.025 M570.765 259.167 C 570.563 281.420,570.204 288.433,569.250 288.750 C 568.269 289.077,568.000 282.805,568.000 259.583 C 568.000 233.823,568.196 230.000,569.515 230.000 C 570.840 230.000,570.997 233.662,570.765 259.167 M331.250 242.863 C 331.663 242.938,332.000 243.644,332.000 244.432 C 332.000 245.647,325.601 245.912,289.750 246.182 L 247.500 246.500 244.161 248.881 C 242.325 250.191,239.512 253.071,237.911 255.281 L 235.000 259.300 235.000 280.068 C 235.000 291.491,234.728 301.546,234.395 302.412 C 232.687 306.864,232.000 300.840,232.000 281.409 C 232.000 256.342,232.207 255.532,240.438 248.409 C 245.476 244.050,246.748 243.444,251.806 243.000 C 256.605 242.579,329.007 242.454,331.250 242.863 M522.500 243.700 C 523.600 244.334,526.975 247.376,530.000 250.460 L 535.500 256.067 535.500 303.531 C 535.500 334.339,535.149 351.084,534.500 351.248 C 533.850 351.412,533.310 335.066,532.956 304.500 C 532.657 278.650,532.319 257.389,532.206 257.253 C 522.324 245.388,524.094 245.835,487.664 246.007 C 437.537 246.243,436.000 246.201,436.000 244.573 C 436.000 243.789,436.788 242.988,437.750 242.795 C 438.713 242.601,457.725 242.467,480.000 242.495 C 508.668 242.532,521.084 242.884,522.500 243.700 M331.500 256.000 C 331.500 257.299,326.314 257.567,292.822 258.000 C 255.522 258.482,254.043 258.575,251.322 260.596 C 246.012 264.542,246.031 264.367,246.015 309.250 C 246.002 345.688,245.809 351.000,244.500 351.000 C 242.625 351.000,242.694 353.046,242.962 305.501 C 243.203 262.700,243.270 262.184,249.188 257.671 C 253.209 254.604,255.464 254.468,302.000 254.487 C 327.550 254.498,331.500 254.701,331.500 256.000 M517.317 257.156 C 519.073 258.307,521.407 260.430,522.505 261.874 C 524.427 264.404,524.500 266.078,524.500 307.749 C 524.500 335.747,524.147 351.086,523.500 351.249 C 522.851 351.412,522.325 336.343,522.000 308.268 L 521.500 265.037 518.231 261.768 L 514.962 258.500 475.845 258.280 C 454.330 258.160,436.508 257.842,436.240 257.574 C 435.972 257.306,436.046 256.323,436.404 255.390 C 437.006 253.820,439.904 253.745,475.589 254.378 C 512.398 255.032,514.267 255.156,517.317 257.156 M331.500 268.000 C 331.500 269.511,328.858 269.590,265.199 269.963 C 255.855 270.018,256.123 268.656,256.602 313.692 C 256.981 349.317,256.680 354.020,254.183 351.514 C 253.808 351.137,253.646 332.980,253.825 311.164 C 254.090 278.874,254.417 271.086,255.582 269.275 C 256.948 267.152,257.728 267.038,272.756 266.775 C 281.415 266.624,298.175 266.500,310.000 266.500 C 328.444 266.500,331.500 266.713,331.500 268.000 M512.582 268.715 C 513.327 269.697,513.946 271.175,513.959 272.000 C 514.595 314.741,514.583 350.057,513.931 351.111 C 511.970 354.285,511.364 349.740,511.917 336.000 C 512.759 315.066,511.757 272.351,510.392 270.990 C 509.623 270.222,498.243 269.891,473.179 269.907 C 451.043 269.921,436.844 269.556,436.478 268.965 C 434.748 266.165,438.010 265.946,474.193 266.432 C 508.229 266.889,511.337 267.074,512.582 268.715 M569.750 350.472 C 568.078 352.356,568.000 351.070,568.000 321.806 C 568.000 298.184,568.286 291.071,569.250 290.749 C 570.223 290.423,570.611 296.766,571.000 319.415 C 571.459 346.121,571.357 348.661,569.750 350.472 M312.189 307.494 C 302.514 315.635,312.769 330.163,324.438 324.846 C 327.013 323.673,331.000 316.830,331.000 313.584 C 331.000 312.603,329.470 310.270,327.600 308.400 C 324.736 305.536,323.488 305.000,319.677 305.000 C 316.314 305.000,314.393 305.640,312.189 307.494 M441.885 306.868 C 435.492 311.916,436.215 320.895,443.293 324.353 C 450.722 327.982,457.790 324.039,458.725 315.745 C 459.133 312.128,458.798 310.877,456.801 308.555 C 453.478 304.692,445.748 303.818,441.885 306.868 M235.019 328.081 C 235.304 339.862,235.364 350.074,235.152 350.776 C 234.871 351.704,234.413 351.758,233.468 350.973 C 231.701 349.507,231.585 305.696,233.349 306.281 C 234.147 306.546,234.659 313.230,235.019 328.081 M400.453 358.161 L 403.000 359.321 403.000 374.538 C 403.000 386.886,402.715 389.991,401.491 391.008 C 400.402 391.911,395.591 392.214,384.241 392.095 C 370.886 391.955,368.310 391.679,367.250 390.274 C 366.386 389.129,366.000 384.217,366.000 374.366 C 366.000 356.202,365.165 357.000,384.175 357.000 C 392.465 357.000,398.915 357.460,400.453 358.161 M140.218 365.607 C 129.675 370.983,129.473 386.753,139.887 391.449 C 144.782 393.657,152.083 393.140,155.147 390.368 C 156.283 389.341,158.083 386.794,159.147 384.710 C 160.247 382.554,162.250 380.471,163.791 379.881 C 165.520 379.218,188.211 378.725,226.500 378.519 C 259.500 378.341,289.313 378.151,292.750 378.098 L 299.000 378.000 299.000 374.607 C 299.000 372.464,298.429 370.995,297.449 370.619 C 295.311 369.798,171.646 369.799,165.711 370.620 C 161.367 371.221,160.497 370.978,156.360 368.007 C 150.841 364.043,144.991 363.174,140.218 365.607 M615.502 365.575 C 613.853 366.435,611.729 367.840,610.781 368.698 C 609.251 370.083,601.324 370.236,539.954 370.068 C 487.990 369.926,470.497 370.172,469.425 371.062 C 467.446 372.705,467.641 376.738,469.755 377.869 C 470.802 378.429,497.930 378.778,537.005 378.735 C 586.240 378.679,603.058 378.960,604.747 379.864 C 605.982 380.526,607.913 382.869,609.037 385.073 C 611.991 390.862,616.217 393.206,622.822 392.717 C 627.331 392.384,628.691 391.776,631.733 388.733 C 634.776 385.691,635.384 384.331,635.717 379.822 C 636.022 375.708,635.647 373.760,634.065 371.241 C 629.934 364.662,621.936 362.221,615.502 365.575 M206.608 382.000 C 173.987 382.454,170.617 382.658,169.625 384.231 C 168.779 385.574,168.931 386.360,170.303 387.731 C 171.950 389.378,176.208 389.516,232.286 389.730 C 265.404 389.857,293.500 389.739,294.721 389.468 C 297.837 388.778,299.638 385.210,297.799 383.371 C 296.129 381.701,263.409 381.209,206.608 382.000 M528.109 382.000 C 474.148 382.462,469.635 382.631,468.626 384.231 C 467.779 385.574,467.931 386.359,469.303 387.731 C 470.952 389.380,475.271 389.514,533.184 389.706 C 572.717 389.837,595.969 389.552,597.148 388.921 C 599.240 387.801,599.679 383.151,597.750 382.544 C 594.804 381.617,583.315 381.527,528.109 382.000 M188.158 433.750 C 188.244 451.763,188.241 467.175,188.151 468.000 C 187.945 469.886,187.928 467.821,188.390 498.718 C 188.715 520.454,188.540 525.137,187.367 526.110 C 186.589 526.756,185.763 527.096,185.533 526.866 C 185.027 526.361,184.493 450.830,184.789 421.750 C 184.969 404.066,185.222 401.000,186.500 401.000 C 187.800 401.000,188.021 405.376,188.158 433.750 M201.789 407.607 C 201.620 410.735,200.979 413.172,200.250 413.454 C 199.533 413.731,199.000 415.680,199.000 418.028 C 199.000 420.355,199.409 421.865,199.949 421.531 C 200.472 421.208,201.193 422.514,201.553 424.432 C 202.040 427.026,201.594 525.487,201.089 526.719 C 201.040 526.839,200.330 526.680,199.512 526.366 C 198.220 525.870,198.006 518.183,197.894 468.148 C 197.743 401.221,197.720 404.172,198.399 402.403 C 198.694 401.634,199.615 401.299,200.501 401.639 C 201.720 402.107,202.012 403.462,201.789 407.607 M245.761 443.750 C 245.592 471.410,245.147 486.500,244.500 486.500 C 243.232 486.500,242.128 404.032,243.372 402.250 C 243.852 401.563,244.645 401.000,245.133 401.000 C 245.641 401.000,245.910 419.305,245.761 443.750 M547.000 448.583 C 547.275 474.387,547.275 496.246,547.000 497.157 C 546.725 498.069,541.775 503.242,536.000 508.653 C 530.225 514.064,525.683 518.718,525.908 518.995 C 526.132 519.273,525.007 520.175,523.408 521.000 C 520.932 522.277,514.212 522.460,478.174 522.229 C 445.249 522.017,435.938 521.684,436.257 520.729 C 436.568 519.793,446.848 519.381,479.315 519.000 L 521.964 518.500 532.050 508.500 C 537.596 503.000,542.588 497.680,543.141 496.678 C 543.781 495.520,544.108 477.714,544.039 447.833 C 543.951 409.938,544.179 400.893,545.215 401.238 C 546.228 401.575,546.606 411.605,547.000 448.583 M570.930 404.750 C 570.891 406.813,570.497 409.400,570.053 410.500 C 569.610 411.600,569.654 413.011,570.150 413.634 C 571.086 414.810,571.574 525.759,570.648 526.685 C 568.258 529.075,567.995 522.717,568.052 464.049 C 568.086 430.043,568.388 401.946,568.723 401.610 C 570.197 400.136,570.995 401.271,570.930 404.750 M224.003 449.250 L 224.006 496.500 227.018 498.500 C 228.675 499.600,233.880 504.663,238.585 509.750 L 247.140 519.000 289.011 519.000 C 327.794 519.000,334.393 519.403,330.906 521.558 C 328.981 522.748,265.118 522.011,262.389 520.767 C 260.567 519.937,259.648 519.952,258.773 520.827 C 258.128 521.472,254.813 522.000,251.408 522.000 L 245.215 522.000 238.039 513.478 C 234.092 508.791,229.723 504.209,228.329 503.296 C 226.935 502.383,224.711 499.918,223.386 497.820 L 220.977 494.003 221.042 448.615 C 221.077 423.652,221.382 402.951,221.720 402.614 C 222.057 402.276,222.708 402.000,223.167 402.000 C 223.625 402.000,224.001 423.263,224.003 449.250 M235.035 444.250 C 235.062 475.516,235.387 487.047,236.285 488.603 C 237.478 490.667,243.903 498.395,249.173 504.104 L 251.846 507.000 291.996 507.000 C 329.697 507.000,332.126 507.107,331.809 508.750 C 331.495 510.378,328.686 510.513,291.486 510.689 C 246.330 510.901,249.613 511.452,243.047 502.564 C 240.842 499.579,237.567 495.763,235.769 494.083 L 232.500 491.028 232.218 447.818 C 232.064 424.052,232.162 404.020,232.437 403.303 C 232.712 402.587,233.401 402.000,233.969 402.000 C 234.660 402.000,235.012 415.916,235.035 444.250 M256.868 441.740 C 256.728 461.958,256.956 479.513,257.374 480.750 C 258.134 482.999,258.150 483.000,283.817 483.181 C 297.943 483.280,314.279 483.228,320.119 483.065 C 327.708 482.853,330.955 483.118,331.497 483.996 C 331.925 484.687,331.654 485.605,330.878 486.096 C 330.120 486.577,313.687 486.976,294.361 486.985 C 261.262 486.999,259.084 486.889,256.861 485.092 C 254.611 483.273,254.477 482.464,254.000 467.842 C 253.725 459.404,253.627 441.120,253.783 427.212 C 254.037 404.523,254.223 402.080,255.595 403.452 C 256.920 404.777,257.089 409.863,256.868 441.740 M513.983 409.250 C 513.973 413.238,514.221 430.375,514.533 447.333 C 515.126 479.570,514.719 484.010,510.986 486.008 C 509.856 486.612,494.817 487.000,472.492 487.000 C 438.136 487.000,435.874 486.891,436.190 485.250 C 436.502 483.628,439.167 483.481,472.749 483.238 L 508.970 482.975 510.419 480.738 C 511.976 478.333,512.660 456.782,512.340 420.250 C 512.248 409.834,512.570 402.000,513.090 402.000 C 513.590 402.000,513.992 405.263,513.983 409.250 M524.985 443.250 C 524.970 483.380,524.523 489.808,522.011 486.000 C 521.466 485.175,521.241 483.901,521.511 483.168 C 521.780 482.436,522.000 463.873,522.000 441.918 C 522.000 407.102,522.192 402.000,523.500 402.000 C 524.809 402.000,524.998 407.243,524.985 443.250 M535.780 446.250 L 535.500 490.500 527.632 500.260 C 523.305 505.629,518.805 510.262,517.632 510.556 C 514.340 511.381,437.265 510.601,436.399 509.733 C 433.974 507.305,439.616 506.927,477.627 506.976 C 508.404 507.016,517.935 506.738,519.127 505.764 C 521.252 504.029,529.515 492.838,531.487 489.025 C 532.897 486.299,533.086 480.813,532.997 445.204 C 532.942 422.817,532.920 403.938,532.948 403.250 C 532.977 402.563,533.688 402.000,534.530 402.000 C 535.884 402.000,536.028 407.077,535.780 446.250 M583.000 463.941 C 583.000 524.909,582.729 530.338,579.904 525.878 C 578.895 524.286,578.663 403.670,579.667 402.667 C 580.033 402.300,580.933 402.000,581.667 402.000 C 582.763 402.000,583.000 412.990,583.000 463.941 M317.185 417.989 C 311.815 419.260,309.000 422.614,309.000 427.740 C 309.000 433.224,310.075 435.265,314.355 437.911 C 319.280 440.954,322.601 440.599,326.600 436.600 C 329.471 433.729,330.000 432.491,330.000 428.648 C 330.000 424.724,329.496 423.607,326.347 420.548 C 322.482 416.795,322.367 416.763,317.185 417.989 M440.661 420.612 C 433.845 427.427,438.059 438.108,448.144 439.582 C 451.910 440.132,452.417 439.857,456.266 435.173 C 460.209 430.375,459.988 425.788,455.600 421.400 C 452.749 418.549,451.479 418.000,447.736 418.000 C 444.257 418.000,442.696 418.576,440.661 420.612 M351.930 494.250 C 351.891 511.988,351.473 527.400,351.000 528.500 C 350.497 529.671,350.111 516.301,350.070 496.250 C 350.025 474.036,350.351 462.000,351.000 462.000 C 351.647 462.000,351.975 473.370,351.930 494.250 M418.741 514.645 L 418.500 564.500 478.250 565.000 C 511.113 565.275,538.001 565.838,538.000 566.250 C 538.000 566.663,538.000 567.447,538.000 567.993 C 538.000 568.640,516.879 568.985,477.472 568.984 L 416.943 568.982 415.884 566.241 C 414.629 562.992,415.180 465.136,416.465 463.057 C 417.117 462.002,417.445 462.043,418.129 463.267 C 418.598 464.105,418.874 487.225,418.741 514.645 M331.325 495.658 C 331.687 496.020,331.481 496.920,330.869 497.658 C 329.976 498.734,322.763 499.000,294.437 499.000 C 260.244 499.000,256.822 498.714,258.500 496.000 C 259.191 494.883,330.216 494.549,331.325 495.658 M509.811 496.750 C 509.510 498.318,507.773 498.529,493.116 498.775 C 478.460 499.022,476.606 498.866,475.297 497.275 C 473.927 495.610,473.871 495.608,474.387 497.250 C 474.898 498.874,473.580 499.000,456.028 499.000 C 437.873 499.000,434.926 498.547,436.500 496.000 C 436.894 495.363,450.368 495.000,473.632 495.000 C 507.869 495.000,510.126 495.109,509.811 496.750 M351.810 545.200 C 351.949 551.415,352.302 558.300,352.595 560.500 C 352.937 563.079,352.637 565.158,351.751 566.353 C 350.441 568.119,347.537 568.213,290.438 568.353 C 237.761 568.482,230.500 568.318,230.500 567.000 C 230.500 565.687,237.778 565.469,289.000 565.249 C 342.584 565.018,347.605 564.855,348.750 563.308 C 349.618 562.134,350.005 557.017,350.015 546.559 C 350.033 529.290,351.429 528.233,351.810 545.200 M208.800 543.405 C 214.804 546.529,217.311 551.154,217.157 558.824 C 216.970 568.143,209.076 574.798,199.688 573.553 C 190.787 572.372,186.000 566.775,186.000 557.549 C 186.000 551.651,188.030 547.731,192.743 544.529 C 197.035 541.612,204.367 541.099,208.800 543.405 M573.349 543.561 C 584.317 548.992,584.981 565.411,574.482 571.564 C 569.406 574.538,564.978 574.652,559.399 571.951 C 553.832 569.256,551.845 565.988,551.275 558.590 C 550.873 553.375,551.146 551.997,553.173 549.000 C 557.521 542.570,566.475 540.156,573.349 543.561 " stroke="none" fill="#0BA6DD" fill-rule="evenodd" stroke-width="0"></path></svg>
                </g>
              </g>
              <g id="shape_Kyu5GEJBRw" ref="shape_Kyu5GEJBRw" key="shape_Kyu5GEJBRw" mask="">
                <g transform="translate(67.0834150358838,329.05628363014216) rotate(0,332.9165849641163,85.49668614455469) scale(1,1)" style="opacity: 1;mix-blend-mode: undefined;" filter="">
                  <!--普通元素-->
                  <svg xmlns="http://www.w3.org/2000/svg" version="1.1" xmlns:xlink="http://www.w3.org/1999/xlink" width="665.8331699282326" height="170.99337228910937" viewBox="0 0 705.0697674418604 181.06976744186045" data-ligature="true" data-parent="shape_Kyu5GEJBRw"><g data-role="text" data-width="553.517704245397" data-height="30" transform="translate(75.77603159823173, 75.53488372093022)"><path d="M7.03 0L2.08 0L2.08-17.90L7.13-17.90Q9.47-17.90 11.26-16.87Q13.06-15.84 14.03-13.93Q15.01-12.02 15.02-9.55L15.02-9.55L15.02-8.41Q15.02-5.88 14.05-3.97Q13.07-2.07 11.26-1.05Q9.44-0.02 7.03 0L7.03 0ZM7.19-15.96L4.44-15.96L4.44-1.93L6.92-1.93Q9.65-1.93 11.17-3.63Q12.69-5.32 12.69-8.46L12.69-8.46L12.69-9.50Q12.69-12.55 11.26-14.24Q9.82-15.93 7.19-15.96L7.19-15.96Z" transform="translate(0 23) " fill="#0ba6dd" stroke="#0ba6dd" stroke-width="0.042" data-glyph-w="16.512080078125" data-glyph-h="29.5078125" data-glyph-ascender="23.3603515625" data-glyph-descender="-6.1474609375" data-kerning="0"></path><path d="M1.12-6.61L1.12-6.77Q1.12-8.73 1.89-10.29Q2.66-11.85 4.03-12.70Q5.40-13.55 7.16-13.55L7.16-13.55Q9.87-13.55 11.55-11.67Q13.23-9.79 13.23-6.66L13.23-6.66L13.23-6.50Q13.23-4.56 12.49-3.02Q11.74-1.48 10.36-0.61Q8.98 0.25 7.18 0.25L7.18 0.25Q4.48 0.25 2.80-1.64Q1.12-3.52 1.12-6.61L1.12-6.61ZM3.41-6.50L3.41-6.50Q3.41-4.29 4.43-2.95Q5.46-1.61 7.18-1.61L7.18-1.61Q8.91-1.61 9.93-2.97Q10.95-4.33 10.95-6.77L10.95-6.77Q10.95-8.96 9.92-10.32Q8.88-11.68 7.16-11.68L7.16-11.68Q5.47-11.68 4.44-10.34Q3.41-9.00 3.41-6.50Z" transform="translate(16.512080078125 23) " fill="#0ba6dd" stroke="#0ba6dd" stroke-width="0.042" data-glyph-w="14.360468749999999" data-glyph-h="29.5078125" data-glyph-ascender="23.3603515625" data-glyph-descender="-6.1474609375" data-kerning="0"></path><path d="M1.72-13.30L3.87-13.30L3.95-11.63Q5.47-13.55 7.93-13.55L7.93-13.55Q12.15-13.55 12.18-8.79L12.18-8.79L12.18 0L9.91 0L9.91-8.80Q9.90-10.24 9.25-10.93Q8.61-11.62 7.24-11.62L7.24-11.62Q6.14-11.62 5.30-11.03Q4.46-10.44 4.00-9.48L4.00-9.48L4.00 0L1.72 0L1.72-13.30Z" transform="translate(30.872548828124998 23) " fill="#0ba6dd" stroke="#0ba6dd" stroke-width="0.042" data-glyph-w="13.89326171875" data-glyph-h="29.5078125" data-glyph-ascender="23.3603515625" data-glyph-descender="-6.1474609375" data-kerning="0"></path><path d="M3.11-18.88L3.11-17.52L2.85-13.00L1.27-13.00L1.28-18.88L3.11-18.88Z" transform="translate(43.48722527555717 23) " fill="#0ba6dd" stroke="#0ba6dd" stroke-width="0.042" data-glyph-w="4.389287109375" data-glyph-h="29.5078125" data-glyph-ascender="23.3603515625" data-glyph-descender="-6.1474609375" data-kerning="-1.2785852713178294"></path><path d="M2.53-16.52L4.81-16.52L4.81-13.30L7.29-13.30L7.29-11.54L4.81-11.54L4.81-3.30Q4.81-2.50 5.14-2.10Q5.47-1.70 6.27-1.70L6.27-1.70Q6.66-1.70 7.35-1.84L7.35-1.84L7.35 0Q6.45 0.25 5.61 0.25L5.61 0.25Q4.08 0.25 3.31-0.68Q2.53-1.60 2.53-3.30L2.53-3.30L2.53-11.54L0.11-11.54L0.11-13.30L2.53-13.30L2.53-16.52Z" transform="translate(47.87651238493217 23) " fill="#0ba6dd" stroke="#0ba6dd" stroke-width="0.042" data-glyph-w="8.225302734375" data-glyph-h="29.5078125" data-glyph-ascender="23.3603515625" data-glyph-descender="-6.1474609375" data-kerning="0"></path><path d="M0,0Z" transform="translate(56.10181511930717 23) " fill="#0ba6dd" stroke="#0ba6dd" stroke-width="0.042" data-glyph-w="11.1637890625" data-glyph-h="29.5078125" data-glyph-ascender="23.3603515625" data-glyph-descender="-6.1474609375" data-kerning="0"></path><path d="M4.19-18.88L4.19 0L1.92 0L1.92-18.88L4.19-18.88Z" transform="translate(67.26560418180716 23) " fill="#0ba6dd" stroke="#0ba6dd" stroke-width="0.042" data-glyph-w="6.110576171875" data-glyph-h="29.5078125" data-glyph-ascender="23.3603515625" data-glyph-descender="-6.1474609375" data-kerning="0"></path><path d="M7.24 0.25L7.24 0.25Q4.54 0.25 2.84-1.53Q1.14-3.31 1.14-6.28L1.14-6.28L1.14-6.70Q1.14-8.68 1.90-10.24Q2.66-11.79 4.01-12.67Q5.37-13.55 6.96-13.55L6.96-13.55Q9.55-13.55 10.99-11.84Q12.43-10.13 12.43-6.95L12.43-6.95L12.43-6.00L3.42-6.00Q3.47-4.03 4.57-2.82Q5.67-1.61 7.36-1.61L7.36-1.61Q8.57-1.61 9.41-2.10Q10.24-2.59 10.87-3.41L10.87-3.41L12.26-2.32Q10.59 0.25 7.24 0.25ZM6.96-11.68L6.96-11.68Q5.58-11.68 4.65-10.68Q3.71-9.68 3.49-7.87L3.49-7.87L10.16-7.87L10.16-8.04Q10.06-9.77 9.22-10.73Q8.39-11.68 6.96-11.68Z" transform="translate(73.37618035368216 23) " fill="#0ba6dd" stroke="#0ba6dd" stroke-width="0.042" data-glyph-w="13.339990234375" data-glyph-h="29.5078125" data-glyph-ascender="23.3603515625" data-glyph-descender="-6.1474609375" data-kerning="0"></path><path d="M12.32 0L9.93 0Q9.74-0.39 9.61-1.40L9.61-1.40Q8.03 0.25 5.83 0.25L5.83 0.25Q3.86 0.25 2.60-0.87Q1.34-1.98 1.34-3.69L1.34-3.69Q1.34-5.77 2.92-6.92Q4.50-8.07 7.36-8.07L7.36-8.07L9.58-8.07L9.58-9.11Q9.58-10.30 8.86-11.01Q8.15-11.72 6.76-11.72L6.76-11.72Q5.55-11.72 4.72-11.10Q3.90-10.49 3.90-9.61L3.90-9.61L1.61-9.61Q1.61-10.61 2.32-11.54Q3.02-12.47 4.24-13.01Q5.45-13.55 6.90-13.55L6.90-13.55Q9.20-13.55 10.50-12.40Q11.80-11.25 11.85-9.23L11.85-9.23L11.85-3.11Q11.85-1.28 12.32-0.20L12.32-0.20L12.32 0ZM6.16-1.73L6.16-1.73Q7.23-1.73 8.19-2.29Q9.15-2.84 9.58-3.73L9.58-3.73L9.58-6.45L7.79-6.45Q3.61-6.45 3.61-4.01L3.61-4.01Q3.61-2.94 4.33-2.34Q5.04-1.73 6.16-1.73Z" transform="translate(86.71617058805715 23) " fill="#0ba6dd" stroke="#0ba6dd" stroke-width="0.042" data-glyph-w="13.69654296875" data-glyph-h="29.5078125" data-glyph-ascender="23.3603515625" data-glyph-descender="-6.1474609375" data-kerning="0"></path><path d="M2.73-13.30L6.11-3.09L9.41-13.30L11.73-13.30L6.96 0L5.23 0L0.41-13.30L2.73-13.30Z" transform="translate(100.22830221959785 23) " fill="#0ba6dd" stroke="#0ba6dd" stroke-width="0.042" data-glyph-w="12.1965625" data-glyph-h="29.5078125" data-glyph-ascender="23.3603515625" data-glyph-descender="-6.1474609375" data-kerning="-0.1844113372093023"></path><path d="M7.24 0.25L7.24 0.25Q4.54 0.25 2.84-1.53Q1.14-3.31 1.14-6.28L1.14-6.28L1.14-6.70Q1.14-8.68 1.90-10.24Q2.66-11.79 4.01-12.67Q5.37-13.55 6.96-13.55L6.96-13.55Q9.55-13.55 10.99-11.84Q12.43-10.13 12.43-6.95L12.43-6.95L12.43-6.00L3.42-6.00Q3.47-4.03 4.57-2.82Q5.67-1.61 7.36-1.61L7.36-1.61Q8.57-1.61 9.41-2.10Q10.24-2.59 10.87-3.41L10.87-3.41L12.26-2.32Q10.59 0.25 7.24 0.25ZM6.96-11.68L6.96-11.68Q5.58-11.68 4.65-10.68Q3.71-9.68 3.49-7.87L3.49-7.87L10.16-7.87L10.16-8.04Q10.06-9.77 9.22-10.73Q8.39-11.68 6.96-11.68Z" transform="translate(112.26504156068312 23) " fill="#0ba6dd" stroke="#0ba6dd" stroke-width="0.042" data-glyph-w="13.339990234375" data-glyph-h="29.5078125" data-glyph-ascender="23.3603515625" data-glyph-descender="-6.1474609375" data-kerning="-0.15982315891472867"></path><path d="M0,0Z" transform="translate(125.60503179505812 23) " fill="#0ba6dd" stroke="#0ba6dd" stroke-width="0.042" data-glyph-w="11.1637890625" data-glyph-h="29.5078125" data-glyph-ascender="23.3603515625" data-glyph-descender="-6.1474609375" data-kerning="0"></path><path d="M2.75-13.30L6.07-3.33L9.17-13.30L11.61-13.30L6.26 2.05Q5.02 5.37 2.31 5.37L2.31 5.37L1.88 5.34L1.03 5.18L1.03 3.33L1.65 3.38Q2.80 3.38 3.45 2.91Q4.09 2.45 4.51 1.20L4.51 1.20L5.02-0.15L0.27-13.30L2.75-13.30Z" transform="translate(136.76882085755813 23) " fill="#0ba6dd" stroke="#0ba6dd" stroke-width="0.042" data-glyph-w="11.913779296875" data-glyph-h="29.5078125" data-glyph-ascender="23.3603515625" data-glyph-descender="-6.1474609375" data-kerning="0"></path><path d="M1.12-6.61L1.12-6.77Q1.12-8.73 1.89-10.29Q2.66-11.85 4.03-12.70Q5.40-13.55 7.16-13.55L7.16-13.55Q9.87-13.55 11.55-11.67Q13.23-9.79 13.23-6.66L13.23-6.66L13.23-6.50Q13.23-4.56 12.49-3.02Q11.74-1.48 10.36-0.61Q8.98 0.25 7.18 0.25L7.18 0.25Q4.48 0.25 2.80-1.64Q1.12-3.52 1.12-6.61L1.12-6.61ZM3.41-6.50L3.41-6.50Q3.41-4.29 4.43-2.95Q5.46-1.61 7.18-1.61L7.18-1.61Q8.91-1.61 9.93-2.97Q10.95-4.33 10.95-6.77L10.95-6.77Q10.95-8.96 9.92-10.32Q8.88-11.68 7.16-11.68L7.16-11.68Q5.47-11.68 4.44-10.34Q3.41-9.00 3.41-6.50Z" transform="translate(148.49818881722382 23) " fill="#0ba6dd" stroke="#0ba6dd" stroke-width="0.042" data-glyph-w="14.360468749999999" data-glyph-h="29.5078125" data-glyph-ascender="23.3603515625" data-glyph-descender="-6.1474609375" data-kerning="-0.1844113372093023"></path><path d="M9.98 0L9.93-1.32Q8.61 0.25 6.04 0.25L6.04 0.25Q3.91 0.25 2.80-0.99Q1.68-2.23 1.67-4.65L1.67-4.65L1.67-13.30L3.95-13.30L3.95-4.71Q3.95-1.68 6.41-1.68L6.41-1.68Q9.01-1.68 9.87-3.63L9.87-3.63L9.87-13.30L12.15-13.30L12.15 0L9.98 0Z" transform="translate(162.85865756722382 23) " fill="#0ba6dd" stroke="#0ba6dd" stroke-width="0.042" data-glyph-w="13.880966796875" data-glyph-h="29.5078125" data-glyph-ascender="23.3603515625" data-glyph-descender="-6.1474609375" data-kerning="0"></path><path d="M8.15-13.38L8.15-11.26Q7.64-11.35 7.03-11.35L7.03-11.35Q4.80-11.35 4.00-9.44L4.00-9.44L4.00 0L1.72 0L1.72-13.30L3.93-13.30L3.97-11.77Q5.09-13.55 7.14-13.55L7.14-13.55Q7.81-13.55 8.15-13.38L8.15-13.38Z" transform="translate(176.7396243640988 23) " fill="#0ba6dd" stroke="#0ba6dd" stroke-width="0.042" data-glyph-w="8.520380859375" data-glyph-h="29.5078125" data-glyph-ascender="23.3603515625" data-glyph-descender="-6.1474609375" data-kerning="0"></path><path d="M0,0Z" transform="translate(185.2600052234738 23) " fill="#0ba6dd" stroke="#0ba6dd" stroke-width="0.042" data-glyph-w="11.1637890625" data-glyph-h="29.5078125" data-glyph-ascender="23.3603515625" data-glyph-descender="-6.1474609375" data-kerning="0"></path><path d="M13.67 0L11.96-4.67L4.46-4.67L2.78 0L0.34 0L7.18-17.90L9.25-17.90L16.09 0L13.67 0ZM8.21-14.99L5.18-6.61L11.26-6.61L8.21-14.99Z" transform="translate(196.4237942859738 23) " fill="#0ba6dd" stroke="#0ba6dd" stroke-width="0.042" data-glyph-w="16.426015625" data-glyph-h="29.5078125" data-glyph-ascender="23.3603515625" data-glyph-descender="-6.1474609375" data-kerning="0"></path><path d="M4.61-17.90L4.61 0L2.25 0L2.25-17.90L4.61-17.90Z" transform="translate(212.8498099109738 23) " fill="#0ba6dd" stroke="#0ba6dd" stroke-width="0.042" data-glyph-w="6.848271484375" data-glyph-h="29.5078125" data-glyph-ascender="23.3603515625" data-glyph-descender="-6.1474609375" data-kerning="0"></path><path d="M0,0Z" transform="translate(219.6980813953488 23) " fill="#0ba6dd" stroke="#0ba6dd" stroke-width="0.042" data-glyph-w="11.1637890625" data-glyph-h="29.5078125" data-glyph-ascender="23.3603515625" data-glyph-descender="-6.1474609375" data-kerning="0"></path><path d="M2.53-16.52L4.81-16.52L4.81-13.30L7.29-13.30L7.29-11.54L4.81-11.54L4.81-3.30Q4.81-2.50 5.14-2.10Q5.47-1.70 6.27-1.70L6.27-1.70Q6.66-1.70 7.35-1.84L7.35-1.84L7.35 0Q6.45 0.25 5.61 0.25L5.61 0.25Q4.08 0.25 3.31-0.68Q2.53-1.60 2.53-3.30L2.53-3.30L2.53-11.54L0.11-11.54L0.11-13.30L2.53-13.30L2.53-16.52Z" transform="translate(230.8618704578488 23) " fill="#0ba6dd" stroke="#0ba6dd" stroke-width="0.042" data-glyph-w="8.225302734375" data-glyph-h="29.5078125" data-glyph-ascender="23.3603515625" data-glyph-descender="-6.1474609375" data-kerning="0"></path><path d="M1.12-6.61L1.12-6.77Q1.12-8.73 1.89-10.29Q2.66-11.85 4.03-12.70Q5.40-13.55 7.16-13.55L7.16-13.55Q9.87-13.55 11.55-11.67Q13.23-9.79 13.23-6.66L13.23-6.66L13.23-6.50Q13.23-4.56 12.49-3.02Q11.74-1.48 10.36-0.61Q8.98 0.25 7.18 0.25L7.18 0.25Q4.48 0.25 2.80-1.64Q1.12-3.52 1.12-6.61L1.12-6.61ZM3.41-6.50L3.41-6.50Q3.41-4.29 4.43-2.95Q5.46-1.61 7.18-1.61L7.18-1.61Q8.91-1.61 9.93-2.97Q10.95-4.33 10.95-6.77L10.95-6.77Q10.95-8.96 9.92-10.32Q8.88-11.68 7.16-11.68L7.16-11.68Q5.47-11.68 4.44-10.34Q3.41-9.00 3.41-6.50Z" transform="translate(238.84129140927806 23) " fill="#0ba6dd" stroke="#0ba6dd" stroke-width="0.042" data-glyph-w="14.360468749999999" data-glyph-h="29.5078125" data-glyph-ascender="23.3603515625" data-glyph-descender="-6.1474609375" data-kerning="-0.24588178294573643"></path><path d="M0,0Z" transform="translate(253.20176015927805 23) " fill="#0ba6dd" stroke="#0ba6dd" stroke-width="0.042" data-glyph-w="11.1637890625" data-glyph-h="29.5078125" data-glyph-ascender="23.3603515625" data-glyph-descender="-6.1474609375" data-kerning="0"></path><path d="M7.06-1.61L7.06-1.61Q8.27-1.61 9.18-2.35Q10.09-3.09 10.19-4.19L10.19-4.19L12.34-4.19Q12.28-3.05 11.56-2.02Q10.83-0.98 9.62-0.37Q8.41 0.25 7.06 0.25L7.06 0.25Q4.34 0.25 2.74-1.57Q1.13-3.38 1.13-6.53L1.13-6.53L1.13-6.91Q1.13-8.85 1.84-10.36Q2.56-11.88 3.89-12.71Q5.23-13.55 7.04-13.55L7.04-13.55Q9.28-13.55 10.76-12.21Q12.25-10.87 12.34-8.73L12.34-8.73L10.19-8.73Q10.09-10.02 9.22-10.85Q8.34-11.68 7.04-11.68L7.04-11.68Q5.31-11.68 4.36-10.43Q3.41-9.18 3.41-6.82L3.41-6.82L3.41-6.39Q3.41-4.09 4.35-2.85Q5.30-1.61 7.06-1.61Z" transform="translate(264.36554922177805 23) " fill="#0ba6dd" stroke="#0ba6dd" stroke-width="0.042" data-glyph-w="13.18015625" data-glyph-h="29.5078125" data-glyph-ascender="23.3603515625" data-glyph-descender="-6.1474609375" data-kerning="0"></path><path d="M4.00-18.88L4.00-11.69Q5.51-13.55 7.93-13.55L7.93-13.55Q12.15-13.55 12.18-8.79L12.18-8.79L12.18 0L9.91 0L9.91-8.80Q9.90-10.24 9.25-10.93Q8.61-11.62 7.24-11.62L7.24-11.62Q6.14-11.62 5.30-11.03Q4.46-10.44 4.00-9.48L4.00-9.48L4.00 0L1.72 0L1.72-18.88L4.00-18.88Z" transform="translate(277.54570547177804 23) " fill="#0ba6dd" stroke="#0ba6dd" stroke-width="0.042" data-glyph-w="13.868671875" data-glyph-h="29.5078125" data-glyph-ascender="23.3603515625" data-glyph-descender="-6.1474609375" data-kerning="0"></path><path d="M12.32 0L9.93 0Q9.74-0.39 9.61-1.40L9.61-1.40Q8.03 0.25 5.83 0.25L5.83 0.25Q3.86 0.25 2.60-0.87Q1.34-1.98 1.34-3.69L1.34-3.69Q1.34-5.77 2.92-6.92Q4.50-8.07 7.36-8.07L7.36-8.07L9.58-8.07L9.58-9.11Q9.58-10.30 8.86-11.01Q8.15-11.72 6.76-11.72L6.76-11.72Q5.55-11.72 4.72-11.10Q3.90-10.49 3.90-9.61L3.90-9.61L1.61-9.61Q1.61-10.61 2.32-11.54Q3.02-12.47 4.24-13.01Q5.45-13.55 6.90-13.55L6.90-13.55Q9.20-13.55 10.50-12.40Q11.80-11.25 11.85-9.23L11.85-9.23L11.85-3.11Q11.85-1.28 12.32-0.20L12.32-0.20L12.32 0ZM6.16-1.73L6.16-1.73Q7.23-1.73 8.19-2.29Q9.15-2.84 9.58-3.73L9.58-3.73L9.58-6.45L7.79-6.45Q3.61-6.45 3.61-4.01L3.61-4.01Q3.61-2.94 4.33-2.34Q5.04-1.73 6.16-1.73Z" transform="translate(291.41437734677805 23) " fill="#0ba6dd" stroke="#0ba6dd" stroke-width="0.042" data-glyph-w="13.69654296875" data-glyph-h="29.5078125" data-glyph-ascender="23.3603515625" data-glyph-descender="-6.1474609375" data-kerning="0"></path><path d="M1.72-13.30L3.87-13.30L3.95-11.63Q5.47-13.55 7.93-13.55L7.93-13.55Q12.15-13.55 12.18-8.79L12.18-8.79L12.18 0L9.91 0L9.91-8.80Q9.90-10.24 9.25-10.93Q8.61-11.62 7.24-11.62L7.24-11.62Q6.14-11.62 5.30-11.03Q4.46-10.44 4.00-9.48L4.00-9.48L4.00 0L1.72 0L1.72-13.30Z" transform="translate(305.11092031552806 23) " fill="#0ba6dd" stroke="#0ba6dd" stroke-width="0.042" data-glyph-w="13.89326171875" data-glyph-h="29.5078125" data-glyph-ascender="23.3603515625" data-glyph-descender="-6.1474609375" data-kerning="0"></path><path d="M7.06-1.61L7.06-1.61Q8.27-1.61 9.18-2.35Q10.09-3.09 10.19-4.19L10.19-4.19L12.34-4.19Q12.28-3.05 11.56-2.02Q10.83-0.98 9.62-0.37Q8.41 0.25 7.06 0.25L7.06 0.25Q4.34 0.25 2.74-1.57Q1.13-3.38 1.13-6.53L1.13-6.53L1.13-6.91Q1.13-8.85 1.84-10.36Q2.56-11.88 3.89-12.71Q5.23-13.55 7.04-13.55L7.04-13.55Q9.28-13.55 10.76-12.21Q12.25-10.87 12.34-8.73L12.34-8.73L10.19-8.73Q10.09-10.02 9.22-10.85Q8.34-11.68 7.04-11.68L7.04-11.68Q5.31-11.68 4.36-10.43Q3.41-9.18 3.41-6.82L3.41-6.82L3.41-6.39Q3.41-4.09 4.35-2.85Q5.30-1.61 7.06-1.61Z" transform="translate(319.0041820342781 23) " fill="#0ba6dd" stroke="#0ba6dd" stroke-width="0.042" data-glyph-w="13.18015625" data-glyph-h="29.5078125" data-glyph-ascender="23.3603515625" data-glyph-descender="-6.1474609375" data-kerning="0"></path><path d="M7.24 0.25L7.24 0.25Q4.54 0.25 2.84-1.53Q1.14-3.31 1.14-6.28L1.14-6.28L1.14-6.70Q1.14-8.68 1.90-10.24Q2.66-11.79 4.01-12.67Q5.37-13.55 6.96-13.55L6.96-13.55Q9.55-13.55 10.99-11.84Q12.43-10.13 12.43-6.95L12.43-6.95L12.43-6.00L3.42-6.00Q3.47-4.03 4.57-2.82Q5.67-1.61 7.36-1.61L7.36-1.61Q8.57-1.61 9.41-2.10Q10.24-2.59 10.87-3.41L10.87-3.41L12.26-2.32Q10.59 0.25 7.24 0.25ZM6.96-11.68L6.96-11.68Q5.58-11.68 4.65-10.68Q3.71-9.68 3.49-7.87L3.49-7.87L10.16-7.87L10.16-8.04Q10.06-9.77 9.22-10.73Q8.39-11.68 6.96-11.68Z" transform="translate(332.18433828427806 23) " fill="#0ba6dd" stroke="#0ba6dd" stroke-width="0.042" data-glyph-w="13.339990234375" data-glyph-h="29.5078125" data-glyph-ascender="23.3603515625" data-glyph-descender="-6.1474609375" data-kerning="0"></path><path d="M0,0Z" transform="translate(345.5243285186531 23) " fill="#0ba6dd" stroke="#0ba6dd" stroke-width="0.042" data-glyph-w="11.1637890625" data-glyph-h="29.5078125" data-glyph-ascender="23.3603515625" data-glyph-descender="-6.1474609375" data-kerning="0"></path><path d="M6.45-8.53L6.45-6.68L0.45-6.68L0.45-8.53L6.45-8.53Z" transform="translate(356.68811758115305 23) " fill="#0ba6dd" stroke="#0ba6dd" stroke-width="0.042" data-glyph-w="6.946630859375" data-glyph-h="29.5078125" data-glyph-ascender="23.3603515625" data-glyph-descender="-6.1474609375" data-kerning="0"></path><path d="M6.45-8.53L6.45-6.68L0.45-6.68L0.45-8.53L6.45-8.53Z" transform="translate(363.634748440528 23) " fill="#0ba6dd" stroke="#0ba6dd" stroke-width="0.042" data-glyph-w="6.946630859375" data-glyph-h="29.5078125" data-glyph-ascender="23.3603515625" data-glyph-descender="-6.1474609375" data-kerning="0"></path><path d="M0,0Z" transform="translate(370.581379299903 23) " fill="#0ba6dd" stroke="#0ba6dd" stroke-width="0.042" data-glyph-w="11.1637890625" data-glyph-h="29.5078125" data-glyph-ascender="23.3603515625" data-glyph-descender="-6.1474609375" data-kerning="0"></path><path d="M2.53-16.52L4.81-16.52L4.81-13.30L7.29-13.30L7.29-11.54L4.81-11.54L4.81-3.30Q4.81-2.50 5.14-2.10Q5.47-1.70 6.27-1.70L6.27-1.70Q6.66-1.70 7.35-1.84L7.35-1.84L7.35 0Q6.45 0.25 5.61 0.25L5.61 0.25Q4.08 0.25 3.31-0.68Q2.53-1.60 2.53-3.30L2.53-3.30L2.53-11.54L0.11-11.54L0.11-13.30L2.53-13.30L2.53-16.52Z" transform="translate(381.745168362403 23) " fill="#0ba6dd" stroke="#0ba6dd" stroke-width="0.042" data-glyph-w="8.225302734375" data-glyph-h="29.5078125" data-glyph-ascender="23.3603515625" data-glyph-descender="-6.1474609375" data-kerning="0"></path><path d="M8.15-13.38L8.15-11.26Q7.64-11.35 7.03-11.35L7.03-11.35Q4.80-11.35 4.00-9.44L4.00-9.44L4.00 0L1.72 0L1.72-13.30L3.93-13.30L3.97-11.77Q5.09-13.55 7.14-13.55L7.14-13.55Q7.81-13.55 8.15-13.38L8.15-13.38Z" transform="translate(389.970471096778 23) " fill="#0ba6dd" stroke="#0ba6dd" stroke-width="0.042" data-glyph-w="8.520380859375" data-glyph-h="29.5078125" data-glyph-ascender="23.3603515625" data-glyph-descender="-6.1474609375" data-kerning="0"></path><path d="M9.98 0L9.93-1.32Q8.61 0.25 6.04 0.25L6.04 0.25Q3.91 0.25 2.80-0.99Q1.68-2.23 1.67-4.65L1.67-4.65L1.67-13.30L3.95-13.30L3.95-4.71Q3.95-1.68 6.41-1.68L6.41-1.68Q9.01-1.68 9.87-3.63L9.87-3.63L9.87-13.30L12.15-13.30L12.15 0L9.98 0Z" transform="translate(398.490851956153 23) " fill="#0ba6dd" stroke="#0ba6dd" stroke-width="0.042" data-glyph-w="13.880966796875" data-glyph-h="29.5078125" data-glyph-ascender="23.3603515625" data-glyph-descender="-6.1474609375" data-kerning="0"></path><path d="M9.47-3.53L9.47-3.53Q9.47-4.45 8.77-4.96Q8.08-5.47 6.35-5.84Q4.62-6.21 3.61-6.73Q2.59-7.24 2.11-7.95Q1.62-8.67 1.62-9.65L1.62-9.65Q1.62-11.29 3.01-12.42Q4.39-13.55 6.54-13.55L6.54-13.55Q8.80-13.55 10.21-12.38Q11.62-11.21 11.62-9.39L11.62-9.39L9.33-9.39Q9.33-10.33 8.54-11.00Q7.75-11.68 6.54-11.68L6.54-11.68Q5.30-11.68 4.60-11.14Q3.90-10.60 3.90-9.73L3.90-9.73Q3.90-8.90 4.55-8.48Q5.20-8.07 6.90-7.68Q8.61-7.30 9.66-6.77Q10.72-6.25 11.23-5.50Q11.74-4.76 11.74-3.69L11.74-3.69Q11.74-1.91 10.32-0.83Q8.89 0.25 6.61 0.25L6.61 0.25Q5.02 0.25 3.79-0.32Q2.56-0.89 1.86-1.90Q1.17-2.91 1.17-4.09L1.17-4.09L3.44-4.09Q3.50-2.95 4.36-2.28Q5.21-1.61 6.61-1.61L6.61-1.61Q7.91-1.61 8.69-2.13Q9.47-2.66 9.47-3.53Z" transform="translate(412.371818753028 23) " fill="#0ba6dd" stroke="#0ba6dd" stroke-width="0.042" data-glyph-w="12.983437499999999" data-glyph-h="29.5078125" data-glyph-ascender="23.3603515625" data-glyph-descender="-6.1474609375" data-kerning="0"></path><path d="M2.53-16.52L4.81-16.52L4.81-13.30L7.29-13.30L7.29-11.54L4.81-11.54L4.81-3.30Q4.81-2.50 5.14-2.10Q5.47-1.70 6.27-1.70L6.27-1.70Q6.66-1.70 7.35-1.84L7.35-1.84L7.35 0Q6.45 0.25 5.61 0.25L5.61 0.25Q4.08 0.25 3.31-0.68Q2.53-1.60 2.53-3.30L2.53-3.30L2.53-11.54L0.11-11.54L0.11-13.30L2.53-13.30L2.53-16.52Z" transform="translate(425.35525625302796 23) " fill="#0ba6dd" stroke="#0ba6dd" stroke-width="0.042" data-glyph-w="8.225302734375" data-glyph-h="29.5078125" data-glyph-ascender="23.3603515625" data-glyph-descender="-6.1474609375" data-kerning="0"></path><path d="M0,0Z" transform="translate(433.580558987403 23) " fill="#0ba6dd" stroke="#0ba6dd" stroke-width="0.042" data-glyph-w="11.1637890625" data-glyph-h="29.5078125" data-glyph-ascender="23.3603515625" data-glyph-descender="-6.1474609375" data-kerning="0"></path><path d="M4.19-13.30L4.19 0L1.92 0L1.92-13.30L4.19-13.30ZM1.73-16.83L1.73-16.83Q1.73-17.39 2.07-17.77Q2.41-18.15 3.07-18.15Q3.74-18.15 4.08-17.77Q4.43-17.39 4.43-16.83Q4.43-16.28 4.08-15.91Q3.74-15.54 3.07-15.54Q2.41-15.54 2.07-15.91Q1.73-16.28 1.73-16.83Z" transform="translate(444.74434804990295 23) " fill="#0ba6dd" stroke="#0ba6dd" stroke-width="0.042" data-glyph-w="6.110576171875" data-glyph-h="29.5078125" data-glyph-ascender="23.3603515625" data-glyph-descender="-6.1474609375" data-kerning="0"></path><path d="M2.53-16.52L4.81-16.52L4.81-13.30L7.29-13.30L7.29-11.54L4.81-11.54L4.81-3.30Q4.81-2.50 5.14-2.10Q5.47-1.70 6.27-1.70L6.27-1.70Q6.66-1.70 7.35-1.84L7.35-1.84L7.35 0Q6.45 0.25 5.61 0.25L5.61 0.25Q4.08 0.25 3.31-0.68Q2.53-1.60 2.53-3.30L2.53-3.30L2.53-11.54L0.11-11.54L0.11-13.30L2.53-13.30L2.53-16.52Z" transform="translate(450.85492422177794 23) " fill="#0ba6dd" stroke="#0ba6dd" stroke-width="0.042" data-glyph-w="8.225302734375" data-glyph-h="29.5078125" data-glyph-ascender="23.3603515625" data-glyph-descender="-6.1474609375" data-kerning="0"></path><path d="M0,0Z" transform="translate(459.08022695615296 23) " fill="#0ba6dd" stroke="#0ba6dd" stroke-width="0.042" data-glyph-w="11.1637890625" data-glyph-h="29.5078125" data-glyph-ascender="23.3603515625" data-glyph-descender="-6.1474609375" data-kerning="0"></path><path d="M2.53-16.52L4.81-16.52L4.81-13.30L7.29-13.30L7.29-11.54L4.81-11.54L4.81-3.30Q4.81-2.50 5.14-2.10Q5.47-1.70 6.27-1.70L6.27-1.70Q6.66-1.70 7.35-1.84L7.35-1.84L7.35 0Q6.45 0.25 5.61 0.25L5.61 0.25Q4.08 0.25 3.31-0.68Q2.53-1.60 2.53-3.30L2.53-3.30L2.53-11.54L0.11-11.54L0.11-13.30L2.53-13.30L2.53-16.52Z" transform="translate(470.2440160186529 23) " fill="#0ba6dd" stroke="#0ba6dd" stroke-width="0.042" data-glyph-w="8.225302734375" data-glyph-h="29.5078125" data-glyph-ascender="23.3603515625" data-glyph-descender="-6.1474609375" data-kerning="0"></path><path d="M1.12-6.61L1.12-6.77Q1.12-8.73 1.89-10.29Q2.66-11.85 4.03-12.70Q5.40-13.55 7.16-13.55L7.16-13.55Q9.87-13.55 11.55-11.67Q13.23-9.79 13.23-6.66L13.23-6.66L13.23-6.50Q13.23-4.56 12.49-3.02Q11.74-1.48 10.36-0.61Q8.98 0.25 7.18 0.25L7.18 0.25Q4.48 0.25 2.80-1.64Q1.12-3.52 1.12-6.61L1.12-6.61ZM3.41-6.50L3.41-6.50Q3.41-4.29 4.43-2.95Q5.46-1.61 7.18-1.61L7.18-1.61Q8.91-1.61 9.93-2.97Q10.95-4.33 10.95-6.77L10.95-6.77Q10.95-8.96 9.92-10.32Q8.88-11.68 7.16-11.68L7.16-11.68Q5.47-11.68 4.44-10.34Q3.41-9.00 3.41-6.50Z" transform="translate(478.2234369700822 23) " fill="#0ba6dd" stroke="#0ba6dd" stroke-width="0.042" data-glyph-w="14.360468749999999" data-glyph-h="29.5078125" data-glyph-ascender="23.3603515625" data-glyph-descender="-6.1474609375" data-kerning="-0.24588178294573643"></path><path d="M0,0Z" transform="translate(492.5839057200822 23) " fill="#0ba6dd" stroke="#0ba6dd" stroke-width="0.042" data-glyph-w="11.1637890625" data-glyph-h="29.5078125" data-glyph-ascender="23.3603515625" data-glyph-descender="-6.1474609375" data-kerning="0"></path><path d="M11.95-9.84L11.95-7.91L4.44-7.91L4.44 0L2.08 0L2.08-17.90L13.17-17.90L13.17-15.96L4.44-15.96L4.44-9.84L11.95-9.84Z" transform="translate(503.7476947825822 23) " fill="#0ba6dd" stroke="#0ba6dd" stroke-width="0.042" data-glyph-w="13.9178515625" data-glyph-h="29.5078125" data-glyph-ascender="23.3603515625" data-glyph-descender="-6.1474609375" data-kerning="0"></path><path d="M13.67 0L11.96-4.67L4.46-4.67L2.78 0L0.34 0L7.18-17.90L9.25-17.90L16.09 0L13.67 0ZM8.21-14.99L5.18-6.61L11.26-6.61L8.21-14.99Z" transform="translate(515.5755511900434 23) " fill="#0ba6dd" stroke="#0ba6dd" stroke-width="0.042" data-glyph-w="16.426015625" data-glyph-h="29.5078125" data-glyph-ascender="23.3603515625" data-glyph-descender="-6.1474609375" data-kerning="-2.0899951550387597"></path><path d="M4.61-17.90L4.61 0L2.25 0L2.25-17.90L4.61-17.90Z" transform="translate(532.0015668150434 23) " fill="#0ba6dd" stroke="#0ba6dd" stroke-width="0.042" data-glyph-w="6.848271484375" data-glyph-h="29.5078125" data-glyph-ascender="23.3603515625" data-glyph-descender="-6.1474609375" data-kerning="0"></path><path d="M14.45-17.90L14.45-15.96L8.69-15.96L8.69 0L6.34 0L6.34-15.96L0.60-15.96L0.60-17.90L14.45-17.90Z" transform="translate(538.493309714147 23) " fill="#0ba6dd" stroke="#0ba6dd" stroke-width="0.042" data-glyph-w="15.02439453125" data-glyph-h="29.5078125" data-glyph-ascender="23.3603515625" data-glyph-descender="-6.1474609375" data-kerning="-0.3565285852713178"></path></g></svg>
                </g>
              </g>
    </svg>